<svg width="20" height="20" viewBox="0 0 20 20" fill="none" xmlns="http://www.w3.org/2000/svg">
  <path fill-rule="evenodd" clip-rule="evenodd" d="M5.246 2.5H3.75A1.25 1.25 0 0 0 2.5 3.75C2.5 11.344 8.656 17.5 16.25 17.5a1.25 1.25 0 0 0 1.25-1.25v-1.496a1.25 1.25 0 0 0-.972-1.218l-2.94-.672a1.25 1.25 0 0 0-1.294.484l-.645.86a11.72 11.72 0 0 1-4.857-4.857l.86-.645a1.25 1.25 0 0 0 .484-1.294l-.672-2.94A1.25 1.25 0 0 0 5.246 2.5Zm-1.25 1.5h1.051l.61 2.67-1.06.795a.75.75 0 0 0-.243.882 13.22 13.22 0 0 0 7.3 7.3.75.75 0 0 0 .881-.244l.795-1.06 2.67.61v1.051C9.403 15.873 4.127 10.597 3.996 4Z" fill="currentColor"/>
</svg>
